# xmcd
#
# Track frame offsets: 
#        150
#        16329
#        35423
#        51345
#        67008
#        84811
#        100537
#        117734
#        135511
#        152977
#        169230
#        184121
#        202151
#
# Disc length: 2881 seconds
#
# Revision: 0
# Processed by: cddbd v1.5PL3 Copyright (c) Steve Scherf et al.
# Submitted via: ExactAudioCopy v0.95a5
#
DISCID=b20b3f0d
DTITLE=Various Artist - EI Condo Pasa
DYEAR=2003
DGENRE=Musical
TTITLE0=Crying In The Rain
TTITLE1=Yesterday Once More
TTITLE2=Moon River
TTITLE3=Love Is Blue
TTITLE4=Silence Is Golden
TTITLE5=EI Condo Pasa
TTITLE6=You Mean Everything to Me
TTITLE7=Devotion
TTITLE8=More Than I Can Say
TTITLE9=I Will Follow Him
TTITLE10=Girl You Are My Love
TTITLE11=He Will Have to Go
TTITLE12=Aishie Maruyo
EXTD=
EXTT0=
EXTT1=
EXTT2=
EXTT3=
EXTT4=
EXTT5=
EXTT6=
EXTT7=
EXTT8=
EXTT9=
EXTT10=
EXTT11=
EXTT12=
PLAYORDER=
